<?xml version="1.0" encoding="UTF-8"?>
<!-- Generated by Pixelmator Pro 3.5.7 -->
<svg width="512" height="512" viewBox="0 0 1024 1024" xmlns="http://www.w3.org/2000/svg">
    <path id="Timeliner" fill="#d5d5d5" fill-rule="evenodd" stroke="none" d="M 890.296875 782.728516 C 880.888794 782.728516 875.41687 782.151978 873.880859 781 C 872.344849 779.848022 865.33551 768.327515 852.855469 746.439453 L 834.136719 713.607422 L 828.375 713.03125 C 819.927002 712.4552 810.999878 709.960938 801.591797 705.544922 L 794.103516 702.087891 L 794.103516 739.527344 C 794.103516 764.871338 793.816223 778.119507 793.240234 779.271484 L 792.664063 781.576172 L 777.6875 781.863281 C 767.511475 781.863281 762.03949 781.575989 761.271484 781 C 760.311523 780.231995 760.02417 761.511963 760.408203 724.839844 C 760.792175 685.86377 760.695129 661.768799 760.119141 652.552734 C 759.351135 636.232788 760.312012 623.369019 763 613.960938 C 767.416016 599.752869 775.527893 587.655884 787.335938 577.671875 C 799.143982 567.687866 812.343506 561.73645 826.935547 559.816406 C 838.263611 558.088379 849.591858 559.239502 860.919922 563.271484 C 877.432007 568.839478 890.487854 578.680908 900.087891 592.792969 C 909.687927 606.905029 914.247559 622.455261 913.767578 639.447266 C 913.287598 656.43927 907.576843 671.65564 896.632813 685.095703 C 890.296753 692.775757 883.095337 698.824219 875.03125 703.240234 C 870.999268 705.160278 868.984375 706.503479 868.984375 707.271484 C 868.984375 707.847473 875.512329 719.752319 888.568359 742.984375 C 901.816406 766.408386 908.439453 778.695679 908.439453 779.847656 C 908.439453 781.19165 907.48053 782.00885 905.560547 782.296875 C 903.640564 782.584839 898.552917 782.728516 890.296875 782.728516 Z M 650.357422 782.726563 C 640.659912 782.704041 634.431885 782.512329 631.671875 782.152344 C 609.015747 778.69635 589.719299 769.672119 573.783203 755.080078 C 557.847107 740.488037 547.192444 722.055237 541.816406 699.783203 C 536.44043 677.703186 536.296753 656.680908 541.384766 636.712891 C 546.472839 616.744873 556.120056 600.231812 570.328125 587.175781 C 584.152222 574.119751 600.760254 565.767151 620.152344 562.119141 C 623.992371 561.15918 639.352295 560.679688 666.232422 560.679688 L 705.976563 560.679688 L 708.279297 562.695313 C 709.815247 564.231323 710.679077 567.016846 710.871094 571.048828 C 711.255066 574.12085 711.352173 577.911804 711.160156 582.423828 C 710.968201 586.935852 710.583801 589.960083 710.007813 591.496094 C 709.431824 592.840088 706.840454 593.703857 702.232422 594.087891 C 697.62439 594.471924 685.335327 594.759155 665.367188 594.951172 C 639.831055 595.143188 624.760376 595.911865 620.152344 597.255859 C 600.568298 603.783875 586.935913 617.608521 579.255859 638.728516 C 577.527893 644.104553 576.471863 647.944092 576.087891 650.248047 L 575.511719 653.992188 L 588.472656 654.568359 C 597.688721 654.952393 604.311707 655.144531 608.34375 655.144531 C 613.335754 655.144531 616.119324 655.431824 616.695313 656.007813 C 617.463318 656.775818 617.847656 662.055603 617.847656 671.847656 C 617.847656 681.447754 617.368164 686.727539 616.408203 687.6875 C 615.448181 688.455505 608.53595 688.839844 595.671875 688.839844 C 586.455811 688.839844 580.935364 688.93689 579.111328 689.128906 C 577.287292 689.320923 576.375 689.800354 576.375 690.568359 C 576.375 692.10437 577.720154 696.087524 580.408203 702.519531 C 583.096191 708.951538 585.400269 713.51123 587.320313 716.199219 C 596.152344 729.831299 608.247375 739.432007 623.607422 745 C 626.679443 745.959961 630.088013 746.583069 633.832031 746.871094 C 637.57605 747.159058 648.760681 747.496826 667.384766 747.880859 C 692.34491 748.072876 705.400757 748.647461 706.552734 749.607422 C 708.85675 750.759399 710.007813 756.039185 710.007813 765.447266 C 710.007813 774.855286 708.951843 780.039978 706.839844 781 C 705.495789 781.768005 693.736633 782.296021 671.560547 782.583984 C 663.244507 782.692017 656.175903 782.740051 650.357422 782.726563 Z M 347.703125 781.863281 C 340.791077 781.863281 336.423615 781.527466 334.599609 780.855469 C 332.775604 780.183472 331.575989 778.407349 331 775.527344 C 330.808014 774.375366 330.712891 738.856934 330.712891 668.96875 C 330.904877 618.088684 331.095123 587.991699 331.287109 578.679688 C 331.479126 569.367676 331.96051 564.231445 332.728516 563.271484 C 334.07254 561.735474 335.512817 560.871704 337.048828 560.679688 C 339.160828 560.103699 364.696198 559.816406 413.65625 559.816406 C 462.616302 559.816406 487.959503 560.103699 489.6875 560.679688 C 491.415527 561.255737 492.663635 562.311646 493.431641 563.847656 C 494.007629 565.383667 494.296875 601.480591 494.296875 672.136719 L 494.296875 778.408203 L 491.992188 780.136719 C 490.456177 781.288696 485.368561 781.863281 476.728516 781.863281 C 468.08847 781.863281 463.288116 781.480896 462.328125 780.712891 C 461.56012 780.136902 461.080658 775.815918 460.888672 767.751953 C 460.696655 759.687866 460.40744 732.904541 460.023438 687.400391 L 459.736328 595.240234 L 412.792969 594.951172 L 365.560547 594.664063 L 365.560547 664.359375 C 365.560547 709.287537 365.368378 739.815369 364.984375 755.943359 C 364.984375 757.287354 364.887299 759.112061 364.695313 761.416016 C 364.503296 772.360046 363.639526 778.600708 362.103516 780.136719 C 360.951508 781.288696 357.304169 781.863281 351.160156 781.863281 C 349.624146 781.863281 348.47113 781.863281 347.703125 781.863281 Z M 172.042969 781.804688 C 161.567017 781.795654 148.119171 781.720154 131.703125 781.576172 L 65.175781 781.576172 L 65.175781 673 C 65.175781 605.991821 65.56012 570.087158 66.328125 565.287109 C 66.904121 562.407104 68.055199 560.871704 69.783203 560.679688 C 70.935211 560.487671 71.60878 560.392578 71.800781 560.392578 C 74.10479 560.008545 78.520821 559.816406 85.048828 559.816406 C 91.768845 560.008423 95.703461 560.680054 96.855469 561.832031 C 98.007469 562.984009 98.679092 593.991333 98.871094 654.855469 L 98.871094 746.728516 L 113.271484 747.015625 C 120.759499 747.591675 136.696045 747.880859 161.080078 747.880859 C 179.320114 747.880859 190.456253 748.119629 194.488281 748.599609 C 198.520294 749.07959 200.824387 750.279175 201.400391 752.199219 C 201.784393 754.119202 201.73587 759.352417 201.255859 767.896484 C 200.775864 776.440491 200.247879 780.903076 199.671875 781.287109 C 198.711868 781.647095 189.502914 781.819702 172.042969 781.804688 Z M 266.199219 781.576172 C 256.791168 781.576172 251.800613 781.096741 251.224609 780.136719 C 250.456604 779.176697 250.120789 742.55188 250.216797 670.263672 C 250.31279 597.975464 250.648605 561.447693 251.224609 560.679688 C 252.184616 560.103699 257.272217 559.816406 266.488281 559.816406 C 276.088318 559.816406 281.271057 560.200745 282.039063 560.96875 C 282.999054 562.120728 283.480469 598.695129 283.480469 670.695313 C 283.480469 743.079468 282.999054 779.56073 282.039063 780.136719 C 280.887054 781.096741 275.607239 781.576172 266.199219 781.576172 Z M 689.162109 692.121094 C 688.965576 692.123169 688.768555 692.121948 688.572266 692.119141 C 685.954773 692.081665 683.355408 691.612915 680.775391 690.712891 C 676.647339 689.272888 673.528015 686.920288 671.416016 683.65625 C 668.151978 679.048218 667.000916 674.055725 667.960938 668.679688 C 668.536926 665.223633 670.167419 661.863647 672.855469 658.599609 C 675.543457 655.335571 678.424133 653.223633 681.496094 652.263672 C 683.416138 651.687622 686.296692 651.592529 690.136719 651.976563 C 693.976746 652.168579 697.431885 653.224487 700.503906 655.144531 C 707.60791 660.328552 710.296387 667.240845 708.568359 675.880859 C 706.840332 684.520874 701.752686 689.800659 693.304688 691.720703 C 691.91864 691.972656 690.537903 692.106812 689.162109 692.121094 Z M 835.855469 678.792969 C 839.460693 678.798096 843.11261 678.355835 846.808594 677.464844 C 857.560669 674.872803 865.911255 669.06311 871.863281 660.039063 C 876.471313 653.319031 878.872437 645.832214 879.064453 637.576172 C 879.064453 625.480103 874.840576 615.207764 866.392578 606.759766 C 860.824524 601.191772 855.3526 597.544434 849.976563 595.816406 C 841.72052 592.552368 832.791443 592.552368 823.191406 595.816406 C 808.791321 601.384399 799.576965 611.656738 795.544922 626.632813 C 792.856873 636.808838 794.103088 646.984131 799.287109 657.160156 C 800.82312 660.040161 803.272766 663.208008 806.632813 666.664063 C 809.992798 670.120117 813.015137 672.519287 815.703125 673.863281 C 822.255188 677.139282 828.972717 678.783142 835.855469 678.792969 Z M 803.896484 511 L 803.896484 496.796875 L 964.068359 496.796875 L 964.068359 511 L 803.896484 511 Z M 458.138672 476.871094 C 450.623077 476.775208 444.820526 473.752808 440.728516 467.800781 C 439.000519 465.30481 438.136719 461.560364 438.136719 456.568359 C 438.136719 452.152344 438.808319 448.69519 440.152344 446.199219 C 443.032349 441.39917 447.351288 438.231323 453.111328 436.695313 L 457.144531 435.544922 C 458.680511 435.736938 460.311035 436.02417 462.039063 436.408203 C 468.183075 437.944214 472.888306 441.016968 476.152344 445.625 C 477.688354 448.312988 478.455078 451.960327 478.455078 456.568359 C 478.455078 461.368408 477.783447 464.920593 476.439453 467.224609 C 472.599426 473.560669 466.743134 476.775085 458.871094 476.871094 C 458.625092 476.874084 458.381104 476.874207 458.138672 476.871094 Z M 716.021484 476.726563 C 706.323975 476.704041 700.095947 476.51239 697.335938 476.152344 C 674.67981 472.69635 655.383362 463.672119 639.447266 449.080078 C 623.511169 434.487976 612.856506 416.055298 607.480469 393.783203 C 602.104431 371.703125 601.960815 350.68103 607.048828 330.712891 C 612.136902 310.744812 621.784119 294.231812 635.992188 281.175781 C 649.816223 268.11969 666.424316 259.767151 685.816406 256.119141 C 689.656433 255.159119 705.016357 254.679688 731.896484 254.679688 L 771.640625 254.679688 L 773.943359 256.695313 C 775.47937 258.231323 776.34314 261.016846 776.535156 265.048828 C 776.919128 268.12085 777.016235 271.911804 776.824219 276.423828 C 776.632263 280.935852 776.247864 283.960144 775.671875 285.496094 C 775.095886 286.840149 772.504517 287.703857 767.896484 288.087891 C 763.288452 288.471863 750.99939 288.759155 731.03125 288.951172 C 705.495117 289.143127 690.424438 289.911865 685.816406 291.255859 C 666.2323 297.783936 652.599976 311.608398 644.919922 332.728516 C 643.191956 338.104492 642.135925 341.944031 641.751953 344.248047 L 641.175781 347.992188 L 654.136719 348.568359 C 663.352783 348.952393 669.975769 349.144531 674.007813 349.144531 C 678.999817 349.144531 681.783386 349.431824 682.359375 350.007813 C 683.12738 350.775818 683.511719 356.055603 683.511719 365.847656 C 683.511719 375.447693 683.032227 380.727478 682.072266 381.6875 C 681.112244 382.455505 674.200012 382.839844 661.335938 382.839844 C 652.119873 382.839844 646.599426 382.93689 644.775391 383.128906 C 642.951355 383.320923 642.039063 383.800354 642.039063 384.568359 C 642.039063 386.10437 643.384216 390.087463 646.072266 396.519531 C 648.760254 402.951538 651.064331 407.511169 652.984375 410.199219 C 661.816406 423.831299 673.911438 433.431946 689.271484 439 C 692.343506 439.960022 695.752075 440.583069 699.496094 440.871094 C 703.240112 441.159058 714.424744 441.496826 733.048828 441.880859 C 758.008972 442.072876 771.064758 442.647461 772.216797 443.607422 C 774.520813 444.75946 775.671875 450.039246 775.671875 459.447266 C 775.671875 468.855286 774.615906 474.039978 772.503906 475 C 771.159851 475.768005 759.400696 476.296021 737.224609 476.583984 C 728.908569 476.692017 721.839966 476.740051 716.021484 476.726563 Z M 539.835938 475.904297 C 532.947937 475.925293 529.000183 475.431824 527.992188 474.423828 C 527.224182 473.655823 526.791321 468.855469 526.695313 460.023438 C 526.599304 451.191406 526.744934 425.079529 527.128906 381.6875 C 527.320923 320.823364 527.128723 290.200439 526.552734 289.816406 C 526.168701 289.624451 517.431824 289.335144 500.34375 288.951172 L 475.287109 288.375 L 475.576172 308.248047 C 475.768188 315.544067 475.863281 322.551453 475.863281 329.271484 C 475.671265 330.423523 470.39151 331.1922 460.023438 331.576172 C 450.039398 332.152161 444.567413 331.960022 443.607422 331 C 442.64743 330.231995 442.167969 323.03241 442.167969 309.400391 L 442.167969 288.664063 L 414.808594 288.664063 L 387.447266 288.664063 L 386.871094 290.679688 C 386.487091 292.215698 386.296875 323.127869 386.296875 383.416016 C 386.296875 443.704102 385.912537 474.231995 385.144531 475 C 384.568512 475.575989 379.671143 475.863281 370.455078 475.863281 L 356.632813 475.863281 L 354.904297 473.560547 C 354.136292 472.408569 353.65686 467.320923 353.464844 458.296875 C 353.272858 449.272827 353.175781 418.552795 353.175781 366.136719 C 353.175781 362.296692 353.175781 356.824768 353.175781 349.720703 C 353.175781 302.680664 353.36795 275.223633 353.751953 267.351563 C 354.135956 259.479553 355.479187 255.352722 357.783203 254.96875 C 357.97522 254.96875 358.167389 254.96875 358.359375 254.96875 L 361.527344 254.103516 C 361.911316 253.911499 394.551117 253.816406 459.447266 253.816406 L 556.792969 254.103516 L 558.232422 256.408203 C 559.000427 257.368164 559.479858 262.64801 559.671875 272.248047 C 559.863892 281.848083 559.960938 312.855408 559.960938 365.271484 L 559.960938 472.119141 L 558.232422 473.847656 C 556.888428 474.999634 551.800781 475.671265 542.96875 475.863281 C 541.864746 475.887268 540.819946 475.901306 539.835938 475.904297 Z M 286.072266 475.576172 C 276.664215 475.576172 271.671692 475.096741 271.095703 474.136719 C 270.327698 473.176758 269.991882 436.551941 270.087891 364.263672 C 270.183868 291.975464 270.519684 255.447693 271.095703 254.679688 C 272.055695 254.103699 277.143341 253.816406 286.359375 253.816406 C 295.959442 253.816406 301.144104 254.200745 301.912109 254.96875 C 302.872131 256.120728 303.351563 292.695068 303.351563 364.695313 C 303.351563 437.07959 302.872131 473.56073 301.912109 474.136719 C 300.760101 475.096741 295.480316 475.576172 286.072266 475.576172 Z M 111.544922 475 C 104.248894 475 99.832886 474.904907 98.296875 474.712891 C 96.760872 474.520935 95.800018 474.03949 95.416016 473.271484 C 94.840012 472.119507 94.552734 441.112305 94.552734 380.248047 L 94.552734 288.664063 L 81.304688 288.664063 C 70.16864 288.664063 64.120155 287.895386 63.160156 286.359375 C 62.584152 284.823364 62.248344 279.592102 62.152344 270.664063 C 62.056343 261.736023 62.29509 256.696899 62.871094 255.544922 L 64.023438 253.816406 L 143.511719 253.816406 C 196.887939 253.816406 223.863449 253.911499 224.439453 254.103516 C 225.39946 254.679504 225.880859 260.056396 225.880859 270.232422 C 225.880859 280.600464 225.39946 286.167542 224.439453 286.935547 C 223.479446 287.895569 207.160599 288.472046 175.480469 288.664063 L 128.248047 288.951172 L 128.535156 380.535156 C 128.535156 442.167419 128.247879 473.271606 127.671875 473.847656 C 126.903877 474.615662 121.528969 475 111.544922 475 Z M 754.826172 386.121094 C 754.629639 386.123108 754.432617 386.121948 754.236328 386.119141 C 751.618835 386.081665 749.01947 385.612915 746.439453 384.712891 C 742.311401 383.272888 739.192078 380.920288 737.080078 377.65625 C 733.81604 373.048218 732.664978 368.055725 733.625 362.679688 C 734.200989 359.223694 735.831482 355.863647 738.519531 352.599609 C 741.20752 349.335632 744.088196 347.223694 747.160156 346.263672 C 749.0802 345.687683 751.960754 345.592529 755.800781 345.976563 C 759.640808 346.168579 763.095947 347.224548 766.167969 349.144531 C 773.271973 354.328552 775.960449 361.240784 774.232422 369.880859 C 772.504395 378.520874 767.416748 383.80072 758.96875 385.720703 C 757.582703 385.972717 756.201965 386.106812 754.826172 386.121094 Z"/>
</svg>
